# xmcd
#
# Track frame offsets:
#	150
#	14862
#	28880
#	46212
#	61835
#	75587
#	90520
#	105025
#	120010
#	134292
#	150477
#	168240
#	188810
#	204885
#	229035
#
# Disc length: 3225 seconds
#
# Revision: 2
# Processed by: cddbd v1.4PL0 Copyright (c) Steve Scherf et al.
# Submitted via: audiograbber 1.80
#
DISCID=a70c970f
DTITLE=Various Artist - Country Heat
DYEAR=1900
DGENRE=
TTITLE0=Clint Black - Put Yourself In My Shoes
TTITLE1=Alan Jackson - Chasin' That Neon Rainbow
TTITLE2=K.T. Olson - Come Next Monday
TTITLE3=Alabama - Down Home
TTITLE4=Keith Whitely - I'm Over You
TTITLE5=Prairie Oyster - Lonely You, Lonely Me
TTITLE6=Pam Tillis - Don't Tell Me What To Do
TTITLE7=Michelle Wright - All You Really Wanna Do
TTITLE8=Alan Jackson - I'd Love You All Over Again
TTITLE9=Alabama - Forever's As Far As I'll Go
TTITLE10=Clint Black - Loving Blind
TTITLE11=Paul Overstreet - Heros
TTITLE12=Lorrie Morgan - Five Minutes
TTITLE13=Judds - Love Can Build A Bridge
TTITLE14=Don Williams - True Love
EXTD=
EXTT0=
EXTT1=
EXTT2=
EXTT3=
EXTT4=
EXTT5=
EXTT6=
EXTT7=
EXTT8=
EXTT9=
EXTT10=
EXTT11=
EXTT12=
EXTT13=
EXTT14=
PLAYORDER=
